<svg class="main-svg" xmlns="http://www.w3.org/2000/svg" xmlns:xlink="http://www.w3.org/1999/xlink" width="800" height="600" style="" viewBox="0 0 800 600"><rect x="0" y="0" width="800" height="600" style="fill: rgb(255, 255, 255); fill-opacity: 1;"/><defs id="defs-17def3"><g class="clips"><clipPath id="clip17def3xyplot" class="plotclip"><rect width="616" height="420"/></clipPath><clipPath class="axesclip" id="clip17def3x"><rect x="80" y="0" width="616" height="600"/></clipPath><clipPath class="axesclip" id="clip17def3y"><rect x="0" y="100" width="800" height="420"/></clipPath><clipPath class="axesclip" id="clip17def3xy"><rect x="80" y="100" width="616" height="420"/></clipPath></g><g class="gradients"/></defs><g class="bglayer"><rect class="bg" x="80" y="100" width="616" height="420" style="fill: rgb(229, 236, 246); fill-opacity: 1; stroke-width: 0;"/></g><g class="layer-below"><g class="imagelayer"/><g class="shapelayer"/></g><g class="cartesianlayer"><g class="subplot xy"><g class="layer-subplot"><g class="shapelayer"/><g class="imagelayer"/></g><g class="gridlayer"><g class="x"><path class="xgrid crisp" transform="translate(147.26,0)" d="M0,100v420" style="stroke: rgb(255, 255, 255); stroke-opacity: 1; stroke-width: 1px;"/><path class="xgrid crisp" transform="translate(272.86,0)" d="M0,100v420" style="stroke: rgb(255, 255, 255); stroke-opacity: 1; stroke-width: 1px;"/><path class="xgrid crisp" transform="translate(398.12,0)" d="M0,100v420" style="stroke: rgb(255, 255, 255); stroke-opacity: 1; stroke-width: 1px;"/><path class="xgrid crisp" transform="translate(523.38,0)" d="M0,100v420" style="stroke: rgb(255, 255, 255); stroke-opacity: 1; stroke-width: 1px;"/><path class="xgrid crisp" transform="translate(648.64,0)" d="M0,100v420" style="stroke: rgb(255, 255, 255); stroke-opacity: 1; stroke-width: 1px;"/></g><g class="y"><path class="ygrid crisp" transform="translate(0,474.56)" d="M80,0h616" style="stroke: rgb(255, 255, 255); stroke-opacity: 1; stroke-width: 1px;"/><path class="ygrid crisp" transform="translate(0,399.98)" d="M80,0h616" style="stroke: rgb(255, 255, 255); stroke-opacity: 1; stroke-width: 1px;"/><path class="ygrid crisp" transform="translate(0,325.39)" d="M80,0h616" style="stroke: rgb(255, 255, 255); stroke-opacity: 1; stroke-width: 1px;"/><path class="ygrid crisp" transform="translate(0,250.8)" d="M80,0h616" style="stroke: rgb(255, 255, 255); stroke-opacity: 1; stroke-width: 1px;"/><path class="ygrid crisp" transform="translate(0,176.20999999999998)" d="M80,0h616" style="stroke: rgb(255, 255, 255); stroke-opacity: 1; stroke-width: 1px;"/><path class="ygrid crisp" transform="translate(0,101.62)" d="M80,0h616" style="stroke: rgb(255, 255, 255); stroke-opacity: 1; stroke-width: 1px;"/></g></g><g class="zerolinelayer"/><path class="xlines-below"/><path class="ylines-below"/><g class="overlines-below"/><g class="xaxislayer-below"/><g class="yaxislayer-below"/><g class="overaxes-below"/><g class="plot" transform="translate(80, 100)" clip-path="url('#clip17def3xyplot')"><g class="scatterlayer mlayer"><g class="trace scatter trace6521f0" style="stroke-miterlimit: 2; opacity: 1;"><g class="fills"/><g class="errorbars"/><g class="lines"><path class="js-line" d="M0,303.89L1.37,299.55L1.72,305.47L2.06,308.77L2.4,304.92L3.43,311.22L3.77,309.81L4.12,312.13L4.46,319.22L5.83,316.35L6.52,319.59L6.86,319.22L7.21,316.23L8.24,316.23L8.58,311.71L8.92,314.88L9.27,310.54L9.61,305.35L10.64,307.8L11.67,311.09L12.01,314.76L13.04,314.94L13.38,312.13L14.41,316.35L15.44,316.23L15.79,314.45L16.13,307.92L16.82,314.27L17.85,311.83L18.87,317.51L19.22,316.78L20.25,315.13L20.59,316.9L20.93,311.52L21.28,326L22.65,332.96L22.99,331.5L23.34,327.04L24.02,324.72L25.05,329.97L25.74,329.54L26.08,336.81L26.42,336.81L28.48,332.9L28.83,333.15L30.54,338.4L30.89,336.38L31.23,336.38L32.26,341.03L32.6,343.59L32.94,342.92L33.29,342.68L34.66,349.03L35,351.05L37.06,342.74L37.41,348.17L38.09,347.01L38.44,348.11L39.47,347.32L39.81,351.11L40.15,350.5L40.49,347.14L40.84,348.17L41.87,347.75L42.21,353.61L42.55,350.37L42.9,349.76L43.24,347.62L44.27,348.91L44.61,349.7L44.96,347.32L45.64,348.91L46.67,345.91L47.02,349.82L47.36,345.3L47.7,339.99L48.04,340.66L49.07,339.32L49.42,336.57L49.76,337.55L50.1,340.66L50.45,338.52L51.48,342.31L52.16,337.42L52.51,341.03L52.85,341.03L53.88,340.05L54.22,340.54L54.56,339.38L56.28,340.05L56.62,342.92L56.97,341.94L57.31,347.32L57.65,345.43L58.68,346.77L59.03,346.77L59.37,349.4L59.71,350.37L60.06,353.86L61.09,353.86L61.43,351.78L61.77,347.93L62.11,351.41L62.46,348.79L63.49,350.74L63.83,349.52L64.52,355.63L65.89,357.46L66.58,359.11L66.92,358.5L68.29,362.35L68.64,362.1L68.98,366.38L69.32,366.32L69.66,360.7L70.69,367.91L71.04,364.79L72.07,369.74L73.44,371.2L74.47,366.38L75.5,367.91L75.84,368.27L76.18,371.88L76.53,374.14L76.87,373.28L77.9,372.24L78.59,374.26L78.93,373.28L79.27,377.25L81.68,385.32L83.05,379.51L83.39,378.84L83.73,388.55L84.08,390.51L85.11,386.17L85.79,393.44L86.14,392.71L86.48,392.59L87.51,397.84L87.85,396.92L88.2,393.56L88.88,397.47L89.91,396.25L90.26,398.63L90.94,398.14L91.28,396.86L92.31,395.09L92.66,399L93.34,398.21L93.69,396.43L94.72,395.52L95.06,391.91L95.75,397.17L97.12,397.53L98.15,392.71L98.49,391.91L99.52,391.06L99.86,392.28L100.21,388.43L100.55,389.78L100.89,391.49L102.27,392.16L102.61,389.41L103.3,390.69L104.33,389.96L104.67,390.45L105.01,392.4L105.7,389.16L106.73,389.41L107.41,392.34L107.76,392.22L108.1,391.06L109.13,389.53L109.47,393.01L109.82,391.24L110.16,391.73L110.5,391.91L111.88,386.72L112.22,389.47L112.56,390.81L112.9,389.1L114.28,388.37L114.62,386.54L114.96,387.64L115.31,385.56L116.34,384.71L116.68,382.14L117.02,381.35L117.37,382.57L119.77,374.63L120.11,376.52L121.14,374.38L121.48,375.05L121.83,375.11L122.51,377.86L123.54,380.25L124.23,380.43L124.57,381.9L124.92,384.89L125.95,382.99L126.63,384.22L126.97,382.14L127.32,386.66L128.35,389.59L129.72,381.65L131.09,383.12L132.12,379.45L133.15,379.51L133.5,378.41L133.84,379.88L134.18,380.25L134.52,379.27L135.55,378.9L135.9,380.73L136.58,377.62L136.93,379.45L138.3,379.88L138.64,377.62L138.99,381.16L139.33,380.37L140.36,379.88L141.05,377.44L141.39,380.98L141.73,372.85L142.76,374.99L143.1,374.38L143.45,375.79L143.79,376.89L144.13,376.03L145.16,375.48L145.51,377.13L145.85,376.28L146.19,375.05L146.54,376.21L147.57,373.83L147.91,375.85L148.25,367.54L148.94,374.63L149.97,374.93L150.65,375.73L151,374.93L151.34,374.01L152.71,374.44L153.74,378.96L154.77,376.64L155.12,378.78L155.46,377.74L155.8,377.92L157.52,375.91L157.86,376.76L158.2,375.3L158.55,376.64L159.58,378.05L159.92,376.7L160.26,377.01L160.61,379.57L161.98,376.09L162.32,377.68L162.67,377.62L163.01,379.51L164.38,377.25L164.72,368.27L165.75,375.54L166.78,376.34L167.13,375.85L167.47,377.74L167.81,374.26L168.16,375.97L169.19,376.64L169.53,377.07L169.87,378.72L171.59,381.04L171.93,380.43L172.62,383.18L172.96,381.35L174.33,381.65L174.68,372.18L175.36,365.77L176.39,364.24L177.08,368.33L177.42,365.46L177.76,366.38L178.79,360.39L179.14,366.38L179.48,363.02L180.17,362.71L181.2,364.24L181.54,363.32L181.88,362.71L182.23,364.85L182.57,362.71L183.6,361.19L183.94,358.74L184.29,361.8L184.97,358.13L186,360.58L186.34,359.66L186.69,362.1L187.37,355.38L188.4,353.24L189.43,357.83L189.78,356.6L191.84,357.52L192.18,357.22L193.55,356.91L193.89,353.06L194.24,354.47L194.58,348.97L195.95,350.5L196.3,354.77L196.98,350.8L198.36,357.52L198.7,356.91L199.04,359.05L199.38,361.49L200.41,361.19L201.79,356.6L202.82,356.91L203.5,330.95L203.85,331.25L204.19,331.25L205.91,334.61L206.25,333.09L207.62,335.53L207.96,332.78L208.99,333.09L210.37,351.11L211.05,356.91L211.4,355.08L212.43,352.02L212.77,354.77L213.46,358.74L213.8,357.52L214.83,359.66L215.17,361.8L215.51,361.19L215.86,361.19L216.2,362.71L217.23,363.63L217.57,365.16L217.92,364.85L218.26,364.55L218.6,365.16L219.63,363.94L219.98,368.52L220.32,365.77L220.66,367.3L222.03,363.94L222.38,366.99L222.72,366.99L223.06,368.52L223.41,367.6L224.44,367.6L225.47,366.38L225.81,366.68L226.84,368.52L227.18,367.91L227.53,368.21L229.58,367.91L229.93,368.82L230.27,368.21L230.61,369.13L231.64,367.6L233.02,361.49L234.05,359.35L234.73,351.11L235.08,351.72L235.42,352.94L236.45,354.47L236.79,351.41L237.13,356.6L237.48,354.47L237.82,353.24L239.19,352.02L239.54,353.24L239.88,351.72L240.22,354.16L241.6,359.35L241.94,355.99L242.63,359.05L244,359.66L244.34,360.58L244.68,359.05L246.06,358.13L246.4,358.74L247.09,349.58L247.43,352.02L248.46,351.72L248.8,347.14L249.15,351.11L249.49,349.58L250.86,345L251.2,344.08L252.23,338.28L253.26,338.28L254.64,345.91L255.67,344.69L256.35,345L256.7,346.83L258.41,348.05L258.75,346.22L259.1,343.78L259.44,345.91L260.47,345L260.81,347.14L261.16,345.91L261.5,343.78L261.84,346.53L262.87,346.53L263.9,349.58L264.25,348.36L265.62,348.05L265.96,351.41L266.65,348.97L267.68,349.89L268.02,349.89L268.36,347.44L269.05,352.02L270.08,349.89L270.42,349.89L270.77,351.41L271.45,355.69L272.48,355.69L273.51,351.72L273.85,352.63L275.57,348.66L275.91,346.22L276.26,346.83L277.63,344.69L278.32,348.36L278.66,345.61L279.69,343.47L280.03,341.03L280.72,343.17L281.06,341.64L282.43,347.44L282.78,346.53L283.12,346.53L284.49,341.94L284.84,341.03L285.52,332.78L285.87,336.14L286.89,339.5L287.24,342.25L287.58,356.91L288.27,370.04L289.3,373.1L289.64,373.71L289.98,370.96L290.33,370.35L290.67,366.38L291.7,366.07L292.04,362.41L292.39,361.49L292.73,362.41L293.07,363.32L294.79,364.85L295.13,363.02L295.47,360.58L296.5,361.49L296.85,363.02L297.19,373.83L298.91,364.55L299.25,369.13L299.59,369.13L299.94,368.21L301.65,371.88L301.99,369.13L302.68,365.46L303.71,368.52L304.4,365.46L305.08,364.85L306.11,365.77L306.46,363.02L307.14,364.85L307.49,370.04L309.2,374.63L309.54,373.4L309.89,372.49L310.92,372.49L311.6,367.6L311.95,369.43L312.29,366.07L313.32,368.21L314.01,370.66L314.35,367.6L314.69,366.99L316.06,367.91L317.09,363.94L318.47,361.49L318.81,362.71L319.15,359.05L319.5,341.94L320.53,356.6L321.21,364.24L321.56,361.8L321.9,352.94L323.27,357.52L323.61,354.47L323.96,356.6L324.3,348.97L325.67,347.75L326.02,349.89L326.7,348.66L327.73,348.97L328.08,343.78L328.42,345.3L328.76,347.14L329.11,352.02L330.13,355.08L330.82,349.89L331.16,352.02L331.51,349.89L332.54,349.58L332.88,351.41L333.22,349.89L333.57,350.8L335.28,351.72L335.63,349.27L337.34,339.81L337.68,342.55L338.03,345L338.37,344.08L338.71,341.94L340.77,341.94L341.12,336.14L342.15,334.92L342.49,336.75L342.83,337.06L343.18,340.42L343.52,334.92L344.55,337.67L345.23,334.31L345.58,340.72L345.92,346.83L346.95,344.69L347.29,343.78L347.64,340.42L347.98,338.28L349.35,338.89L350.04,335.53L350.38,339.5L350.73,342.25L351.75,335.83L352.78,328.81L353.13,330.34L354.16,329.73L354.84,323.92L355.19,324.23L355.53,324.53L356.56,326.37L356.9,329.73L357.25,329.42L357.59,326.98L357.93,321.78L358.96,322.09L359.3,322.7L359.65,320.56L359.99,323.01L360.33,322.7L361.36,318.42L362.05,314.15L362.39,325.14L362.74,322.09L363.77,320.56L365.14,306.21L366.17,306.51L366.85,299.49L367.2,300.4L367.54,308.35L368.91,309.87L369.26,304.07L369.6,304.99L369.94,299.49L370.97,297.65L371.32,300.1L372,301.93L372.35,301.32L373.37,302.24L374.75,315.37L375.78,311.71L376.12,310.18L376.46,312.93L377.15,318.12L378.18,322.09L378.52,318.42L378.87,326.98L379.21,327.59L379.55,324.23L383.33,307.43L383.67,298.57L384.36,278.11L385.39,279.02L386.76,263.75L387.79,262.83L388.47,258.56L388.82,261L389.16,272.3L390.19,273.52L390.53,268.33L390.88,274.44L391.22,274.44L391.56,275.36L392.59,271.69L392.94,270.78L393.28,277.5L393.62,290.94L393.97,290.45L394.99,292.77L395.68,292.77L396.02,285.13L396.37,280.55L397.4,282.99L398.08,278.41L398.43,283.3L398.77,283.3L399.8,282.08L400.83,288.49L401.17,287.27L402.54,290.63L402.89,284.34L403.23,289.71L403.57,290.63L404.6,289.1L404.95,279.63L405.29,275.66L405.63,282.69L405.98,277.8L407.01,281.47L407.69,282.99L408.04,279.33L408.38,284.83L409.41,286.05L409.75,286.05L410.09,300.71L410.44,299.18L410.78,288.49L411.81,295.27L412.15,308.71L414.21,325.39L414.56,322.88L414.9,320.99L415.24,335.47L415.59,350.8L416.62,355.38L417.99,365.77L419.02,365.1L419.36,364.85L419.7,369.49L420.39,373.1L421.42,375.18L422.79,365.71L423.82,364.3L424.85,360.58L425.19,369.01L426.22,368.82L426.57,371.08L426.91,371.82L427.25,368.09L427.6,368.33L428.63,372.79L428.97,375.05L429.31,372.43L430,372.85L431.37,378.05L431.71,372.24L432.4,376.83L433.43,374.75L433.77,380.92L434.46,375.36L434.8,362.1L435.83,370.35L436.86,380.86L437.21,379.57L438.92,382.93L439.26,381.47L439.61,385.07L440.64,386.11L441.32,380L441.67,384.52L442.01,381.83L443.04,381.71L443.73,380.12L444.07,384.03L444.41,385.19L445.44,380.18L445.78,380.73L446.13,383.91L446.47,383.97L446.81,382.45L447.84,383.79L448.19,381.53L449.22,374.87L450.59,377.99L450.93,379.09L451.28,378.96L451.62,378.41L452.65,380.73L452.99,379.57L453.33,379.21L453.68,376.7L454.02,377.19L455.05,376.21L455.39,375.18L455.74,375.73L456.08,378.72L457.45,371.2L457.8,370.59L458.14,368.46L458.48,372.43L458.83,365.58L460.2,363.32L460.54,363.02L460.88,364.18L461.23,356.91L462.26,360.64L463.29,363.08L463.63,359.54L464.66,360.88L465,363.69L465.35,369.01L466.03,368.58L467.06,365.65L467.75,362.47L468.09,363.63L468.43,362.71L469.81,360.09L470.15,365.04L470.49,363.02L470.84,369.92L471.87,368.52L472.21,366.32L472.55,365.65L472.9,362.9L473.24,360.39L474.27,362.04L474.61,360.09L474.95,360.33L475.3,365.65L475.64,358.74L476.67,358.19L478.04,364.55L479.07,365.46L479.42,362.84L479.76,365.52L480.1,364.3L481.82,359.35L482.16,361.25L482.85,358.13L483.88,360.39L484.56,364.91L484.91,363.39L485.25,360.15L486.28,357.52L486.62,365.4L487.65,362.1L488.68,365.1L489.03,366.75L489.37,364.61L489.71,364.18L490.05,368.46L491.08,371.08L491.43,368.52L492.46,374.26L493.83,375.6L494.86,378.11L495.89,376.83L496.23,375.54L496.57,375.79L496.92,377.25L497.26,375.54L498.29,376.52L498.63,376.58L498.98,375.73L501.38,371.94L501.72,371.57L503.1,376.76L503.44,375.3L503.78,376.4L504.12,373.65L504.47,373.1L505.5,374.44L505.84,375.48L506.18,372.49L508.59,378.9L508.93,382.69L509.27,382.38L510.3,384.09L511.67,390.51L512.7,389.59L514.08,384.46L515.11,384.16L516.14,379.02L516.48,377.74L517.51,379.76L517.85,378.11L518.19,376.95L518.88,377.19L519.91,377.44L520.25,376.64L520.6,378.54L522.31,373.22L522.66,373.16L523.69,375.73L524.72,373.47L525.06,374.5L525.4,371.88L525.74,370.17L526.09,372L527.46,374.75L528.15,369.43L528.49,371.02L529.52,370.35L530.21,363.14L530.55,364.42L530.89,365.1L531.92,363.2L532.27,363.94L532.61,366.56L532.95,367.78L533.29,367.42L534.32,367.23L534.67,369.13L535.01,365.04L535.35,365.71L535.7,365.28L536.73,369.98L537.41,372.73L537.76,370.84L538.1,369.01L539.13,368.46L539.82,371.45L540.16,369.13L540.5,366.2L541.53,367.11L542.9,361.19L543.93,361.37L544.28,360.09L544.62,360.64L544.96,360.88L545.31,357.7L546.34,356.91L546.68,353.18L547.02,353.24L547.36,354.59L547.71,353L548.74,357.22L549.08,359.17L549.42,353.55L550.11,348.91L551.14,351.41L551.83,348.6L552.17,351.11L552.51,351.23L553.54,355.63L553.89,354.1L554.57,354.34L554.91,354.83L556.63,345.12L557.32,346.53L558.69,348.24L559.03,347.81L559.38,346.22L559.72,339.07L560.75,339.93L561.09,338.77L561.44,353.18L561.78,346.34L562.12,347.01L563.15,340.72L564.18,332.23L564.52,331.74L565.55,329.05L565.9,323.98L566.58,323.25L566.93,324.78L567.96,332.11L568.3,328.63L569.33,333.27L570.36,332.9L570.7,333.02L571.04,330.09L571.39,330.03L571.73,333.33L572.76,323.92L573.1,294.23L574.13,262.22L575.51,272.79L576.53,277.01L577.56,273.28L577.91,265.89L578.59,266.99L578.94,271.88L580.31,267.42L580.65,260.76L581.34,254.47L582.37,254.71L583.06,256.48L583.4,255.87L583.74,254.4L585.11,248.6L585.46,242.74L585.8,241.7L586.14,242.68L587.17,254.47L588.55,276.34L589.58,257.64L589.92,260.39L590.26,252.57L590.95,258.99L591.98,277.8L592.32,271.08L592.66,287.94L593.01,300.53L593.35,274.14L595.07,318.67L595.41,306.02L595.75,299.3L596.78,299.61L597.81,276.21L598.15,286.11L599.18,273.59L599.53,282.99L600.56,301.38L601.59,278.11L601.93,287.33L602.27,273.34L602.62,267.42L603.99,276.15L604.33,268.33L604.68,286.6L606.39,256.42L606.73,262.83L607.76,253.3L608.79,252.45L609.14,255.93L609.48,246.16L610.17,265.95L611.2,255.87L611.54,244.02L611.88,244.75L612.23,251.23L613.6,239.62L613.94,254.59L614.28,272.12L614.63,266.62L614.97,259.23L616,257.21" style="vector-effect: non-scaling-stroke; fill: none; stroke: rgb(99, 110, 250); stroke-opacity: 1; stroke-width: 2px; opacity: 1;"/></g><g class="points"/><g class="text"/></g><g class="trace scatter trace67d52b" style="stroke-miterlimit: 2; opacity: 1;"><g class="fills"/><g class="errorbars"/><g class="lines"><path class="js-line" d="M0,300.74L1.03,300.8L1.37,300.06L1.72,302.31L2.06,285.56L2.4,305.53L3.43,310.11L4.12,306.09L4.46,306.45L5.83,306.18L6.52,311.85L6.86,311.59L7.21,310.43L8.24,310.2L8.58,308.96L8.92,309.99L9.27,307.36L9.61,307.95L10.64,304.47L10.98,304.05L11.32,301.39L12.01,302.96L13.04,302.99L13.73,306.18L14.07,305.74L14.41,304.47L15.44,305.94L15.79,304.85L16.82,306.45L17.85,306.21L19.22,308.93L20.25,305.32L22.99,323.43L23.34,318.44L23.68,313.68L24.02,313.92L25.05,316.61L25.39,319.24L25.74,315.87L26.42,319.15L27.8,316.55L28.14,319.32L28.48,318.17L28.83,316.22L29.86,317.79L30.2,316.05L30.54,317.67L30.89,313.24L31.23,315.87L32.26,317.7L33.29,320.39L33.63,323.58L35,332.03L35.35,327.51L35.69,327.18L36.03,322.07L37.06,322.57L37.41,326.89L38.09,321.48L38.44,322.72L39.47,322.99L39.81,324.14L40.15,323.96L40.49,322.13L40.84,319.38L41.87,319.83L42.9,328.63L43.24,323.49L44.27,324.05L44.61,322.9L45.3,320.51L45.64,322.1L46.67,318.47L47.02,311.41L47.36,311.64L47.7,314.86L48.04,313.36L49.07,313.86L49.42,313.62L49.76,315.99L50.1,317.61L50.45,316.67L51.48,315.34L52.85,309.37L53.88,310.43L55.25,310.08L56.28,311.2L56.62,310.29L56.97,312.18L57.31,315.63L57.65,311.91L58.68,313.54L59.03,313.45L59.37,315.6L59.71,312.97L60.06,313.77L61.09,311.53L61.77,310.05L62.11,311.11L62.46,311.5L63.49,309.31L64.52,306.98L65.89,307.66L66.23,306.39L66.58,306.59L66.92,307.6L68.29,309.52L68.64,307.33L68.98,307.3L69.32,311.61L70.69,317.46L71.04,316.31L71.38,321.39L72.07,321.01L73.44,321.57L73.78,319.8L74.13,321.89L74.47,320.95L75.5,321.54L75.84,319.56L76.53,322.6L76.87,321.98L77.9,322.25L78.59,327.12L78.93,326.44L79.27,328.31L81.33,332.88L81.68,329.72L83.05,329.72L83.39,325.68L85.11,322.81L85.45,323.99L85.79,323.99L86.14,322.43L87.51,327.86L87.85,324.79L88.88,328.63L89.91,327.45L90.94,331.26L91.28,325.47L93,329.63L93.34,331.82L93.69,328.45L94.72,326.21L95.06,322.87L95.4,323.19L95.75,323.67L97.12,324.55L97.46,321.78L98.49,316.25L99.52,313.98L99.86,313.71L100.21,309.52L101.92,311.29L102.27,310.29L103.3,307.04L104.33,305.68L105.7,305.47L106.73,309.37L107.07,308.51L107.41,308.96L107.76,309.75L108.1,310.23L109.13,307.27L109.47,306.92L109.82,310.17L110.16,306.65L110.5,309.31L111.53,308.84L112.22,313.27L112.56,312.53L112.9,312.12L113.93,310.99L114.28,311.79L114.96,312L115.31,310.14L116.34,312.09L117.37,309.34L117.71,309.78L119.08,309.07L119.43,307.8L119.77,306.98L120.11,307.57L121.14,306.15L122.17,306.95L122.51,309.16L123.54,312.71L123.89,309.75L124.57,309.55L124.92,311.97L126.63,309.34L126.97,307.66L127.32,311.76L128.35,314.98L129.72,308.99L131.09,308.84L132.12,305.88L133.15,306.5L134.18,301.51L134.52,302.4L135.55,302.28L135.9,303.31L136.24,300.71L138.3,301.69L138.64,301.9L139.33,300.06L140.36,300.27L140.7,302.28L141.05,297.88L141.39,297.29L141.73,298.23L143.1,298.71L143.45,296.11L143.79,295.34L144.13,295.6L145.16,294.42L145.51,295.28L145.85,294.66L146.19,294.69L146.54,293.95L147.57,297.82L147.91,297.76L148.25,299.59L148.59,300.06L148.94,299.21L150.31,299.24L150.65,298.2L152.71,297.64L153.06,295.43L153.74,300.3L154.77,298.06L155.12,300.51L155.46,299.83L155.8,299.33L157.17,300.51L157.52,299.68L158.2,296.64L158.55,296.99L159.58,297.88L159.92,295.93L160.26,296.28L160.61,298.44L160.95,295.52L161.98,294.48L162.67,295.01L163.01,296.58L164.38,293.51L164.72,298.62L165.07,297.26L165.41,298.44L165.75,300.92L166.78,301.36L167.13,298.32L167.81,297.61L168.16,298.68L169.19,298.41L169.53,301.48L170.56,305.71L171.59,307.95L171.93,309.58L172.27,301.13L172.62,304.55L172.96,301.63L173.99,301.51L175.02,298.23L175.36,299.65L177.08,304.88L177.42,303.79L177.76,301.78L178.79,301.45L179.14,302.55L179.48,300.92L181.2,301.01L181.54,300.12L181.88,300.33L182.23,303.93L182.57,304.11L183.6,301.98L184.97,295.87L186,298.74L186.34,298.35L186.69,298.97L187.03,294.6L187.37,294.19L188.4,294.39L189.78,290.29L191.15,290.46L192.18,291.03L193.55,290.85L194.58,289.34L195.61,289.78L195.95,289.84L196.3,291.68L196.98,290.41L198.36,291.94L199.04,291.11L199.38,289.73L200.76,290.29L201.1,289.64L201.44,290.11L201.79,287.72L202.82,288.84L203.16,286.86L204.19,283.97L205.22,284.41L206.25,283.85L206.59,284.53L207.96,286.62L208.31,286.24L208.65,293.24L208.99,294.04L210.37,291.2L210.71,291.47L211.05,290.88L211.4,289.99L212.43,290.14L212.77,291.68L213.11,289.96L213.46,291.5L213.8,291.35L215.51,292.59L215.86,290.55L216.2,291.59L217.23,290.94L217.57,291.35L217.92,288.81L218.26,288.37L218.6,289.64L219.63,288.81L219.98,291.44L221.01,290.08L222.03,289.73L222.38,289.16L222.72,290.17L223.41,291.5L224.44,292.09L225.47,293.57L225.81,293.95L227.18,293.03L227.53,291.94L227.87,292.3L229.24,291.11L229.93,290.08L230.27,288.78L230.61,289.08L231.64,286.71L232.33,285L232.67,282.37L233.02,283.4L234.05,282.9L234.39,282.34L234.73,284.94L235.42,273.48L236.45,275.43L237.13,272.21L237.48,272.74L237.82,272.27L238.85,271.91L239.19,270.94L239.54,272.71L239.88,272.18L240.22,271L241.25,271L241.6,267.69L242.63,264.2L244,265.24L244.34,265.18L244.68,264.11L245.03,264.53L246.06,264.03L246.74,262.28L247.09,264.29L247.43,264.26L248.46,266.45L249.83,264.38L250.86,262.96L251.55,263.05L251.89,261.54L252.23,263.7L253.26,263.88L253.95,263.2L254.29,264.53L254.64,264.88L255.67,264.03L256.35,264.38L256.7,266.63L257.04,264.26L258.07,264.62L258.41,265.38L258.75,264.35L259.1,262.9L259.44,262.02L260.47,262.84L261.16,264.76L261.5,263.79L261.84,262.58L262.87,262.19L263.22,268.13L263.56,265.83L263.9,265.98L265.27,264.47L265.62,265.21L265.96,267.36L266.3,265.18L266.65,265.65L267.68,266.51L268.02,271.91L268.36,269.52L268.71,272.68L269.05,272.71L270.08,269.73L270.77,267.48L271.11,269.25L271.45,269.7L272.48,267.93L272.82,267.19L273.17,267.9L273.51,267.81L273.85,267.98L274.88,267.36L275.23,267.48L275.57,266.18L276.26,263.44L277.63,262.55L277.97,261.9L278.32,257.59L278.66,258.03L279.69,256.32L280.03,255.96L280.37,256.32L280.72,256.4L282.09,256.55L282.43,257.79L284.84,262.08L285.18,262.43L286.89,260.84L287.24,261.31L288.27,260.84L289.3,260.89L290.33,257.41L290.67,255.84L292.04,254.75L292.39,255.49L292.73,255.43L293.07,254.37L294.79,258.97L295.13,260.87L295.47,259.95L296.5,262.34L297.19,258.59L297.53,250.32L297.88,246.24L298.91,243.23L299.25,246.95L299.59,243.82L299.94,244.44L301.31,245.68L301.65,242.67L301.99,243.5L302.34,241.16L302.68,240.04L303.71,239.57L304.05,238.36L304.4,239.21L305.08,238.56L306.8,237.62L307.14,235.61L307.49,235.58L308.51,239.36L308.86,239.86L309.2,239.51L309.54,237.53L309.89,236.82L310.92,237.14L311.6,235.34L311.95,237.17L313.66,234.1L314.01,234.37L314.35,235.64L314.69,236.49L316.06,235.46L316.75,235.31L317.09,236.35L318.47,237.14L318.81,236.17L320.87,227.28L321.21,230.82L321.9,226.45L323.27,226.01L323.61,222.37L324.3,222.82L325.33,220.28L325.67,219.95L326.02,217.77L326.7,212.57L327.73,215.26L328.42,222.49L328.76,219.27L331.16,237.91L331.51,235.43L332.88,232.8L333.22,229.2L333.91,213.63L335.28,211.8L335.97,210.59L336.31,204.59L337.34,203.08L337.68,207.9L338.37,211.53L338.71,209.05L339.74,207.25L340.09,208.37L340.77,205.33L341.12,199.48L342.83,199.98L343.18,198.98L343.52,199.24L344.55,203.53L344.89,199.07L345.23,200.72L345.58,206.75L345.92,211.06L346.95,201.81L347.64,209.88L347.98,202.46L349.35,209.26L349.7,204.36L350.04,204.41L350.38,202.43L350.73,209.97L351.75,207.31L352.78,201.14L353.13,202.29L354.16,199.84L354.5,196.08L354.84,195.2L355.19,196.85L355.53,196.73L356.56,197.18L356.9,199.98L357.25,199.33L357.59,198.86L357.93,198.54L358.96,202.55L359.3,202.79L359.65,213.13L361.36,206.48L361.71,206.93L362.05,205.95L362.39,202.61L362.74,199.69L363.77,200.84L364.45,204.41L364.8,204.12L365.14,199.84L366.17,196.94L366.51,199.89L366.85,198.42L367.2,198.8L367.54,201.99L368.91,203.53L369.26,199.69L369.6,201.9L369.94,196.82L370.97,196.91L371.32,198.77L372.35,192.8L373.37,191.98L374.06,191.09L374.4,188.76L374.75,185.66L375.78,186.45L377.15,195.64L378.18,198.95L378.87,202.91L379.21,198.57L380.92,194.9L381.61,194.67L382.98,190.71L383.33,194.46L383.67,199.54L384.01,196.67L384.36,194.7L385.39,199.3L385.73,195.79L386.07,195.26L386.42,196.82L386.76,197.21L387.79,201.14L388.13,202.49L388.47,196.17L389.16,197.47L390.19,199.57L391.56,178.48L392.59,175.67L392.94,175.94L393.28,173.75L393.97,178.27L394.99,179.57L395.34,179.25L395.68,180.78L396.02,178.74L396.37,178.95L397.4,176.91L397.74,177.12L398.08,184.27L398.77,184.47L399.8,185.12L400.83,183.85L401.17,181.52L402.54,183.38L402.89,186.07L403.23,184.06L403.57,184.98L404.6,186.63L404.95,188.49L405.29,186.87L405.63,184.18L407.01,188.31L407.35,185.72L407.69,186.01L408.04,183.12L409.41,184.33L409.75,182.52L410.09,182.23L410.44,179.75L410.78,178.68L411.81,178.39L412.15,177.89L412.5,172.87L412.84,180.13L413.18,177.53L414.21,178.95L414.56,175.76L414.9,184.39L415.24,192.15L415.59,186.54L416.62,183.06L417.3,175.05L417.64,177.89L417.99,178.95L419.02,175.02L419.36,178.95L419.7,186.93L420.39,186.69L421.42,184.33L421.76,182.76L422.11,182.85L422.45,170.74L422.79,175.11L423.82,175.26L424.16,175.14L424.51,167.96L424.85,168.82L425.19,167.73L426.22,170.21L426.57,170.97L426.91,175.97L427.25,178.51L427.6,176.59L428.63,183L428.97,187.99L429.31,187.19L430,185.54L431.03,184.71L431.37,182.7L432.4,171.86L433.43,172.75L434.8,188.94L435.83,186.48L436.86,180.52L437.21,187.87L440.64,214.96L441.32,204.21L442.01,199.57L443.04,196.47L443.73,199.6L444.07,208.22L444.41,198.77L445.44,197.27L445.78,193.51L446.13,194.43L446.47,195.4L446.81,194.93L447.84,199.54L448.19,198.62L448.53,203.35L449.22,199.27L450.59,200.75L451.28,202.02L451.62,198.98L452.65,202.05L452.99,199.81L454.02,191.74L455.05,192.24L455.74,190.44L456.08,194.49L456.42,192.66L457.45,194.31L458.14,188.46L458.48,173.66L458.83,167.43L460.2,168.79L460.88,173.04L461.23,169.68L462.26,170.32L462.6,172.98L463.29,170.8L463.63,166.31L465,166.22L465.35,170.97L466.03,176.17L467.06,169.32L468.43,162.88L469.46,160.34L470.49,154.82L470.84,159.87L471.87,159.87L472.21,157.24L472.55,158.12L472.9,155.55L473.24,151.77L474.27,149.2L474.95,147.49L475.3,147.9L475.64,147.49L476.67,147.17L477.01,149.44L477.7,150.62L478.04,148.82L479.07,150.03L479.42,156.2L479.76,159.72L480.1,156.62L481.48,153.4L481.82,147.93L482.5,148.35L482.85,143.86L483.88,150.03L484.22,148.32L484.56,148.47L485.25,142.68L486.28,143.92L486.62,149.71L487.31,148.82L487.65,146.99L489.03,150.06L489.37,148.32L489.71,145.1L490.05,147.93L491.08,147.2L492.11,145.22L492.46,146.66L493.83,147.79L494.17,150.36L494.52,146.87L494.86,150.65L495.89,142.08L496.92,127.49L497.26,124.04L498.63,123.74L498.98,119.96L499.32,124.12L499.66,121.88L500.69,121.82L501.38,111.57L501.72,115.44L502.07,115.71L503.44,112.81L503.78,115.2L504.12,116.06L504.47,113.9L505.5,113.67L505.84,110.65L506.18,108.44L506.87,111.87L507.9,112.1L508.24,114.58L508.59,110.71L508.93,111.36L509.27,114.44L510.99,113.34L511.33,109.62L511.67,112.13L512.7,106.67L513.05,106.67L513.39,108.14L513.73,110.48L514.08,109.12L515.11,107.82L515.45,107.11L515.79,109.77L516.48,105.43L517.51,116.62L518.54,82.53L518.88,79.7L519.91,82.98L520.25,80.79L520.6,89.39L520.94,83.8L521.28,78.81L522.31,74.73L522.66,76.8L523,72.1L523.34,75.06L523.69,85.6L524.72,76.36L525.06,79.19L525.4,77.63L525.74,74.94L526.09,75.71L527.46,73.88L528.49,69.77L529.52,75L530.21,92.61L530.55,89.68L530.89,91.66L531.92,95.74L532.27,87.52L533.29,78.07L534.32,79.67L535.01,80.55L535.35,76.77L535.7,83.15L536.73,81.11L537.07,79.55L537.41,87.91L538.1,73.85L539.13,76.74L539.47,78.78L539.82,75.68L540.5,69.65L541.53,75.21L541.87,68.94L542.56,69.65L542.9,70.69L543.93,75.62L544.28,86.37L544.62,89.36L544.96,85.96L545.31,81.79L546.34,79.52L546.68,76.48L547.36,71.28L547.71,78.9L548.74,80.61L549.08,93.93L549.42,90.33L549.77,91.63L550.11,100.99L552.17,105.75L552.51,100.82L553.54,98.22L553.89,93.7L554.23,95.97L554.57,94.02L554.91,95.23L555.94,92.87L556.29,89.09L558.35,94.94L558.69,93.11L559.03,95.44L559.38,94.35L559.72,89.59L560.75,91.04L561.09,86.46L563.49,73.7L563.84,74.02L564.52,57.22L565.55,58.13L566.58,56.18L566.93,55.53L567.96,58.6L568.3,58.19L568.98,52.9L569.33,52.84L570.36,55.89L570.7,54.56L571.04,55.41L571.39,50.19L573.45,39.91L573.79,37.84L575.51,29.89L575.85,31.16L576.53,46.49L577.56,47.53L578.25,39.99L578.59,41.41L578.94,52.7L579.97,48.83L580.31,38.64L580.65,41.83L581,38.64L581.34,38.84L583.4,21L583.74,23.27L585.11,24.81L585.46,23.6L586.14,29.01L587.17,40.35L588.2,53.46L588.55,55.59L589.58,38.81L589.92,43.75L590.26,24.9L591.98,65.96L592.32,57.1L592.66,64.34L593.01,93.85L593.35,78.48L594.38,132.96L594.72,121.11L595.07,136.56L596.78,175.44L597.13,142.65L597.81,100.85L598.15,118.98L599.53,101.5L599.87,118.54L601.59,74.62L601.93,76.62L602.62,68.83L603.99,85.96L604.33,71.57L605.02,72.67L605.36,63.01L607.42,83.92L607.76,77.21L608.79,72.75L609.14,85.81L609.82,67.17L610.17,72.43L611.2,72.7L611.54,61.29L611.88,77.86L612.23,82.15L612.57,78.51L613.6,75.8L614.28,85.72L614.63,76.86L616,60.94" style="vector-effect: non-scaling-stroke; fill: none; stroke: rgb(239, 85, 59); stroke-opacity: 1; stroke-width: 2px; opacity: 1;"/></g><g class="points"/><g class="text"/></g></g></g><g class="overplot"/><path class="xlines-above crisp" style="fill: none;" d="M0,0"/><path class="ylines-above crisp" style="fill: none;" d="M0,0"/><g class="overlines-above"/><g class="xaxislayer-above"><g class="xtick"><text text-anchor="middle" x="0" y="533" transform="translate(147.26,0)" style="font-family: 'Open Sans', verdana, arial, sans-serif; font-size: 12px; fill: rgb(42, 63, 95); fill-opacity: 1; white-space: pre;">2016</text></g><g class="xtick"><text text-anchor="middle" x="0" y="533" transform="translate(272.86,0)" style="font-family: 'Open Sans', verdana, arial, sans-serif; font-size: 12px; fill: rgb(42, 63, 95); fill-opacity: 1; white-space: pre;">2017</text></g><g class="xtick"><text text-anchor="middle" x="0" y="533" transform="translate(398.12,0)" style="font-family: 'Open Sans', verdana, arial, sans-serif; font-size: 12px; fill: rgb(42, 63, 95); fill-opacity: 1; white-space: pre;">2018</text></g><g class="xtick"><text text-anchor="middle" x="0" y="533" transform="translate(523.38,0)" style="font-family: 'Open Sans', verdana, arial, sans-serif; font-size: 12px; fill: rgb(42, 63, 95); fill-opacity: 1; white-space: pre;">2019</text></g><g class="xtick"><text text-anchor="middle" x="0" y="533" transform="translate(648.64,0)" style="font-family: 'Open Sans', verdana, arial, sans-serif; font-size: 12px; fill: rgb(42, 63, 95); fill-opacity: 1; white-space: pre;">2020</text></g></g><g class="yaxislayer-above"><g class="ytick"><text text-anchor="end" x="79" y="4.199999999999999" transform="translate(0,474.56)" style="font-family: 'Open Sans', verdana, arial, sans-serif; font-size: 12px; fill: rgb(42, 63, 95); fill-opacity: 1; white-space: pre;">0.5</text></g><g class="ytick"><text text-anchor="end" x="79" y="4.199999999999999" transform="translate(0,399.98)" style="font-family: 'Open Sans', verdana, arial, sans-serif; font-size: 12px; fill: rgb(42, 63, 95); fill-opacity: 1; white-space: pre;">1</text></g><g class="ytick"><text text-anchor="end" x="79" y="4.199999999999999" transform="translate(0,325.39)" style="font-family: 'Open Sans', verdana, arial, sans-serif; font-size: 12px; fill: rgb(42, 63, 95); fill-opacity: 1; white-space: pre;">1.5</text></g><g class="ytick"><text text-anchor="end" x="79" y="4.199999999999999" transform="translate(0,250.8)" style="font-family: 'Open Sans', verdana, arial, sans-serif; font-size: 12px; fill: rgb(42, 63, 95); fill-opacity: 1; white-space: pre;">2</text></g><g class="ytick"><text text-anchor="end" x="79" y="4.199999999999999" transform="translate(0,176.20999999999998)" style="font-family: 'Open Sans', verdana, arial, sans-serif; font-size: 12px; fill: rgb(42, 63, 95); fill-opacity: 1; white-space: pre;">2.5</text></g><g class="ytick"><text text-anchor="end" x="79" y="4.199999999999999" transform="translate(0,101.62)" style="font-family: 'Open Sans', verdana, arial, sans-serif; font-size: 12px; fill: rgb(42, 63, 95); fill-opacity: 1; white-space: pre;">3</text></g></g><g class="overaxes-above"/></g></g><g class="polarlayer"/><g class="ternarylayer"/><g class="geolayer"/><g class="funnelarealayer"/><g class="pielayer"/><g class="treemaplayer"/><g class="sunburstlayer"/><g class="glimages"/><defs id="topdefs-17def3"><g class="clips"/><clipPath id="legend17def3"><rect width="80" height="48" x="0" y="0"/></clipPath></defs><g class="layer-above"><g class="imagelayer"/><g class="shapelayer"/></g><g class="infolayer"><g class="legend" pointer-events="all" transform="translate(708.32, 100)"><rect class="bg" shape-rendering="crispEdges" style="stroke: rgb(68, 68, 68); stroke-opacity: 1; fill: rgb(255, 255, 255); fill-opacity: 1; stroke-width: 0px;" width="80" height="48" x="0" y="0"/><g class="scrollbox" transform="translate(0, 0)" clip-path="url('#legend17def3')"><g class="groups"><g class="traces" style="opacity: 1;" transform="translate(0, 14.5)"><text class="legendtext user-select-none" text-anchor="start" x="40" y="4.680000000000001" style="font-family: 'Open Sans', verdana, arial, sans-serif; font-size: 12px; fill: rgb(42, 63, 95); fill-opacity: 1; white-space: pre;">MNTA</text><g class="layers" style="opacity: 1;"><g class="legendfill"/><g class="legendlines"><path class="js-line" d="M5,0h30" style="fill: none; stroke: rgb(99, 110, 250); stroke-opacity: 1; stroke-width: 2px;"/></g><g class="legendsymbols"><g class="legendpoints"/></g></g><rect class="legendtoggle" pointer-events="all" x="0" y="-9.5" width="74.78125" height="19" style="cursor: pointer; fill: rgb(0, 0, 0); fill-opacity: 0;"/></g><g class="traces" style="opacity: 1;" transform="translate(0, 33.5)"><text class="legendtext user-select-none" text-anchor="start" x="40" y="4.680000000000001" style="font-family: 'Open Sans', verdana, arial, sans-serif; font-size: 12px; fill: rgb(42, 63, 95); fill-opacity: 1; white-space: pre;">ZTS</text><g class="layers" style="opacity: 1;"><g class="legendfill"/><g class="legendlines"><path class="js-line" d="M5,0h30" style="fill: none; stroke: rgb(239, 85, 59); stroke-opacity: 1; stroke-width: 2px;"/></g><g class="legendsymbols"><g class="legendpoints"/></g></g><rect class="legendtoggle" pointer-events="all" x="0" y="-9.5" width="74.78125" height="19" style="cursor: pointer; fill: rgb(0, 0, 0); fill-opacity: 0;"/></g></g></g><rect class="scrollbar" rx="20" ry="3" width="0" height="0" style="fill: rgb(128, 139, 164); fill-opacity: 1;" x="0" y="0"/></g><g class="g-gtitle"/><g class="g-xtitle"/><g class="g-ytitle"/></g></svg>